<svg xmlns="http://www.w3.org/2000/svg" xmlns:xlink="http://www.w3.org/1999/xlink" width="500" zoomAndPan="magnify" viewBox="0 0 375 374.999991" height="500" preserveAspectRatio="xMidYMid meet" version="1.0"><defs><clipPath id="d33f8d179a"><path d="M 15.078125 35 L 353 35 L 353 344.949219 L 15.078125 344.949219 Z M 15.078125 35 " clip-rule="nonzero"/></clipPath></defs><g clip-path="url(#d33f8d179a)"><path fill="#292c35" d="M 56.761719 66.0625 C 94.316406 36.773438 157.105469 29.941406 187.203125 40.644531 C 217.308594 51.347656 236.707031 66.0625 241.386719 87.46875 C 246.074219 108.875 256.109375 116.902344 274.167969 118.910156 C 292.226562 120.917969 322.332031 128.945312 337.046875 152.359375 C 351.765625 175.769531 359.792969 208.546875 343.066406 230.621094 C 326.34375 252.695312 309.621094 246.675781 297.582031 250.691406 C 285.539062 254.703125 275.507812 272.765625 257.445312 292.164062 C 239.382812 311.566406 200.640625 343.496094 142.386719 344.339844 C 96.230469 345.011719 48.738281 310.226562 46.730469 273.433594 C 44.722656 236.640625 54.757812 222.597656 40.707031 207.210938 C 26.660156 191.824219 15.15625 181.007812 15.957031 140.984375 C 16.625 107.539062 40.042969 79.105469 56.761719 66.0625 " fill-opacity="1" fill-rule="nonzero"/></g></svg>