<svg xmlns="http://www.w3.org/2000/svg" xmlns:xlink="http://www.w3.org/1999/xlink" width="96" zoomAndPan="magnify" viewBox="0 0 72 72" height="96" preserveAspectRatio="xMidYMid meet" version="1.0"><defs><clipPath id="0ba532b998"><path d="M 3 3.0625 L 69.492188 3.0625 L 69.492188 69.0625 L 3 69.0625 Z M 3 3.0625 " clip-rule="nonzero"/></clipPath></defs><g clip-path="url(#0ba532b998)"><path fill="#000000" d="M 34.273438 3.179688 C 28.808594 3.449219 23.808594 4.953125 19.234375 7.703125 C 16.675781 9.242188 13.636719 11.777344 11.609375 14.019531 C 5.519531 20.820312 2.742188 28.644531 3.171875 37.859375 C 3.429688 43.410156 4.917969 48.347656 7.714844 52.988281 C 11.011719 58.449219 16.558594 63.484375 22.136719 66.074219 C 26.527344 68.113281 30.898438 69.035156 36.144531 69.035156 C 43.054688 69.035156 48.847656 67.34375 54.191406 63.773438 C 57.476562 61.582031 60.304688 58.886719 62.769531 55.628906 C 67.382812 49.492188 69.492188 42.425781 69.121094 34.332031 C 68.90625 29.769531 67.953125 25.898438 66.078125 22.015625 C 63.691406 17.066406 60.199219 12.867188 55.613281 9.457031 C 50.644531 5.734375 44.636719 3.53125 38.664062 3.222656 C 36.242188 3.105469 35.847656 3.09375 34.273438 3.179688 Z M 26.367188 23.578125 C 28.136719 24.015625 29.675781 24.933594 31.027344 26.347656 C 33.019531 28.429688 34.121094 31.09375 34.527344 34.726562 C 34.59375 35.304688 34.648438 36.054688 34.648438 36.417969 L 34.648438 37.058594 L 16.195312 37.058594 L 16.257812 38.257812 C 16.453125 41.792969 18.261719 44.1875 21.441406 45.097656 C 22.546875 45.417969 24.902344 45.441406 25.972656 45.152344 C 28.039062 44.59375 29.804688 42.980469 30.105469 41.378906 L 30.171875 41.015625 L 34.238281 41.015625 L 34.152344 41.355469 C 33.542969 44.179688 31.753906 46.457031 29.109375 47.792969 C 27.257812 48.722656 24.355469 49.128906 21.828125 48.816406 C 19.257812 48.496094 17.265625 47.578125 15.574219 45.933594 C 13.828125 44.222656 12.855469 42.277344 12.230469 39.25 C 11.921875 37.6875 11.890625 34.277344 12.179688 32.933594 C 12.894531 29.628906 14.664062 26.828125 17.0625 25.203125 C 18.367188 24.316406 20.167969 23.597656 21.636719 23.375 C 22.707031 23.214844 25.363281 23.320312 26.367188 23.578125 Z M 44.703125 27.703125 C 46.375 30.140625 47.777344 32.140625 47.828125 32.140625 C 47.871094 32.140625 49.316406 30.164062 51.042969 27.746094 C 52.765625 25.332031 54.222656 23.332031 54.289062 23.3125 C 54.351562 23.289062 55.507812 23.277344 56.847656 23.289062 L 59.289062 23.320312 L 55.035156 28.988281 C 52.703125 32.097656 50.722656 34.761719 50.636719 34.886719 C 50.484375 35.113281 50.710938 35.445312 55.335938 41.890625 C 58.015625 45.609375 60.242188 48.722656 60.285156 48.785156 C 60.347656 48.894531 59.792969 48.925781 57.648438 48.925781 L 54.941406 48.914062 L 51.417969 43.6875 C 49.488281 40.800781 47.871094 38.449219 47.828125 38.449219 C 47.785156 38.449219 46.160156 40.800781 44.21875 43.6875 L 40.695312 48.914062 L 38.160156 48.925781 C 36.757812 48.925781 35.609375 48.902344 35.609375 48.882812 C 35.609375 48.851562 37.753906 45.835938 40.375 42.167969 C 43 38.5 45.121094 35.453125 45.097656 35.390625 C 45.066406 35.316406 43.097656 32.613281 40.707031 29.363281 C 38.320312 26.113281 36.359375 23.417969 36.359375 23.363281 C 36.359375 23.3125 37.527344 23.269531 39.015625 23.269531 L 41.660156 23.269531 Z M 44.703125 27.703125 " fill-opacity="1" fill-rule="nonzero"/></g><path fill="#000000" d="M 22.222656 26.902344 C 20.660156 27.105469 19.503906 27.683594 18.359375 28.828125 C 17.683594 29.480469 17.457031 29.808594 17.050781 30.644531 C 16.589844 31.597656 16.226562 32.855469 16.226562 33.464844 L 16.226562 33.746094 L 30.253906 33.746094 L 30.253906 33.390625 C 30.253906 32.761719 29.847656 31.414062 29.398438 30.546875 C 28.359375 28.550781 26.476562 27.222656 24.214844 26.914062 C 23.316406 26.785156 23.101562 26.785156 22.222656 26.902344 Z M 22.222656 26.902344 " fill-opacity="1" fill-rule="nonzero"/></svg>