<svg xmlns="http://www.w3.org/2000/svg" xmlns:xlink="http://www.w3.org/1999/xlink" width="500" zoomAndPan="magnify" viewBox="0 0 375 374.999991" height="500" preserveAspectRatio="xMidYMid meet" version="1.0"><defs><g/><clipPath id="732d5a4976"><path d="M 43.769531 221.460938 L 176.820312 221.460938 L 176.820312 236.253906 L 43.769531 236.253906 Z M 43.769531 221.460938 " clip-rule="nonzero"/></clipPath><clipPath id="a944904eab"><path d="M 194.136719 137.371094 L 327.1875 137.371094 L 327.1875 152.167969 L 194.136719 152.167969 Z M 194.136719 137.371094 " clip-rule="nonzero"/></clipPath></defs><rect x="-37.5" width="450" fill="#ffffff" y="-37.499999" height="449.999989" fill-opacity="1"/><rect x="-37.5" width="450" fill="#17181d" y="-37.499999" height="449.999989" fill-opacity="1"/><g clip-path="url(#732d5a4976)"><path fill="#ffffff" d="M 43.769531 221.460938 L 176.8125 221.460938 L 176.8125 236.253906 L 43.769531 236.253906 Z M 43.769531 221.460938 " fill-opacity="1" fill-rule="nonzero"/></g><g clip-path="url(#a944904eab)"><path fill="#ffffff" d="M 194.136719 137.371094 L 327.179688 137.371094 L 327.179688 152.167969 L 194.136719 152.167969 Z M 194.136719 137.371094 " fill-opacity="1" fill-rule="nonzero"/></g><g fill="#ffffff" fill-opacity="1"><g transform="translate(41.670939, 195.271365)"><g><path d="M 22.5 0 L 22.5 -20.640625 L 0.765625 -58.96875 L 16 -58.96875 L 23.34375 -45.328125 L 29.234375 -34.625 L 35.046875 -45.328125 L 42.296875 -58.96875 L 57.546875 -58.96875 L 35.890625 -20.8125 L 35.890625 0 Z M 22.5 0 "/></g></g></g><g fill="#ffffff" fill-opacity="1"><g transform="translate(117.411418, 195.271365)"><g><path d="M 0.765625 0 L 24.1875 -58.96875 L 37.328125 -58.96875 L 60.75 0 L 46.421875 0 L 42.46875 -10.1875 L 19.046875 -10.1875 L 15.078125 0 Z M 22.5 -20.71875 L 39.09375 -20.71875 L 30.75 -42.296875 Z M 22.5 -20.71875 "/></g></g></g><g fill="#ffffff" fill-opacity="1"><g transform="translate(199.065436, 236.097978)"><g><path d="M 21.234375 0 L 21.234375 -46.421875 L 2.53125 -46.421875 L 2.53125 -58.96875 L 53.328125 -58.96875 L 53.328125 -46.421875 L 34.625 -46.421875 L 34.625 0 Z M 21.234375 0 "/></g></g></g><g fill="#ffffff" fill-opacity="1"><g transform="translate(272.362846, 236.097978)"><g><path d="M 0.765625 0 L 24.1875 -58.96875 L 37.328125 -58.96875 L 60.75 0 L 46.421875 0 L 42.46875 -10.1875 L 19.046875 -10.1875 L 15.078125 0 Z M 22.5 -20.71875 L 39.09375 -20.71875 L 30.75 -42.296875 Z M 22.5 -20.71875 "/></g></g></g></svg>