<svg xmlns="http://www.w3.org/2000/svg" xmlns:xlink="http://www.w3.org/1999/xlink" width="96" zoomAndPan="magnify" viewBox="0 0 72 72" height="96" preserveAspectRatio="xMidYMid meet" version="1.0"><defs><clipPath id="7ee700fdfc"><path d="M 10.816406 16 L 19 16 L 19 25 L 10.816406 25 Z M 10.816406 16 " clip-rule="nonzero"/></clipPath><clipPath id="a4fb775c86"><path d="M 10.816406 27 L 19 27 L 19 36 L 10.816406 36 Z M 10.816406 27 " clip-rule="nonzero"/></clipPath><clipPath id="9ff4c19256"><path d="M 32 4.125 L 40 4.125 L 40 12 L 32 12 Z M 32 4.125 " clip-rule="nonzero"/></clipPath><clipPath id="3131f7a09d"><path d="M 53 16 L 61.066406 16 L 61.066406 25 L 53 25 Z M 53 16 " clip-rule="nonzero"/></clipPath><clipPath id="f02e60c457"><path d="M 53 27 L 61.066406 27 L 61.066406 36 L 53 36 Z M 53 27 " clip-rule="nonzero"/></clipPath><clipPath id="64eac546c1"><path d="M 10.816406 38 L 19 38 L 19 46 L 10.816406 46 Z M 10.816406 38 " clip-rule="nonzero"/></clipPath><clipPath id="2f82c3293e"><path d="M 53 38 L 61.066406 38 L 61.066406 47 L 53 47 Z M 53 38 " clip-rule="nonzero"/></clipPath><clipPath id="73f42ae336"><path d="M 10.816406 49 L 19 49 L 19 57 L 10.816406 57 Z M 10.816406 49 " clip-rule="nonzero"/></clipPath><clipPath id="389ef1f2e0"><path d="M 32 60 L 40 60 L 40 67.875 L 32 67.875 Z M 32 60 " clip-rule="nonzero"/></clipPath><clipPath id="c59d4f0fde"><path d="M 53 49 L 61.066406 49 L 61.066406 57 L 53 57 Z M 53 49 " clip-rule="nonzero"/></clipPath></defs><g clip-path="url(#7ee700fdfc)"><path fill="#509ee3" d="M 18.429688 20.410156 C 18.429688 20.921875 18.332031 21.417969 18.140625 21.894531 C 17.945312 22.367188 17.671875 22.785156 17.3125 23.152344 C 16.957031 23.515625 16.542969 23.792969 16.078125 23.992188 C 15.613281 24.1875 15.125 24.285156 14.621094 24.285156 C 14.117188 24.285156 13.632812 24.1875 13.164062 23.992188 C 12.699219 23.792969 12.285156 23.515625 11.929688 23.152344 C 11.574219 22.785156 11.296875 22.367188 11.105469 21.894531 C 10.910156 21.417969 10.816406 20.921875 10.816406 20.410156 C 10.816406 19.894531 10.910156 19.402344 11.105469 18.925781 C 11.296875 18.449219 11.574219 18.03125 11.929688 17.667969 C 12.285156 17.304688 12.699219 17.023438 13.164062 16.828125 C 13.632812 16.628906 14.117188 16.53125 14.621094 16.53125 C 15.125 16.53125 15.613281 16.628906 16.078125 16.828125 C 16.542969 17.023438 16.957031 17.304688 17.3125 17.667969 C 17.671875 18.03125 17.945312 18.449219 18.140625 18.925781 C 18.332031 19.402344 18.429688 19.894531 18.429688 20.410156 Z M 18.429688 20.410156 " fill-opacity="1" fill-rule="nonzero"/></g><g clip-path="url(#a4fb775c86)"><path fill="#509ee3" d="M 18.429688 31.265625 C 18.429688 31.777344 18.332031 32.273438 18.140625 32.746094 C 17.945312 33.222656 17.671875 33.640625 17.3125 34.003906 C 16.957031 34.367188 16.542969 34.648438 16.078125 34.84375 C 15.613281 35.042969 15.125 35.140625 14.621094 35.140625 C 14.117188 35.140625 13.632812 35.042969 13.164062 34.84375 C 12.699219 34.648438 12.285156 34.367188 11.929688 34.003906 C 11.574219 33.640625 11.296875 33.222656 11.105469 32.746094 C 10.910156 32.273438 10.816406 31.777344 10.816406 31.265625 C 10.816406 30.75 10.910156 30.253906 11.105469 29.78125 C 11.296875 29.304688 11.574219 28.886719 11.929688 28.523438 C 12.285156 28.160156 12.699219 27.878906 13.164062 27.683594 C 13.632812 27.484375 14.117188 27.386719 14.621094 27.386719 C 15.125 27.386719 15.613281 27.484375 16.078125 27.683594 C 16.542969 27.878906 16.957031 28.160156 17.3125 28.523438 C 17.671875 28.886719 17.945312 29.304688 18.140625 29.78125 C 18.332031 30.253906 18.429688 30.75 18.429688 31.265625 Z M 18.429688 31.265625 " fill-opacity="1" fill-rule="nonzero"/></g><path fill="#509ee3" d="M 29.085938 20.410156 C 29.085938 20.921875 28.992188 21.417969 28.796875 21.894531 C 28.605469 22.367188 28.328125 22.785156 27.972656 23.152344 C 27.617188 23.515625 27.203125 23.792969 26.738281 23.992188 C 26.269531 24.1875 25.785156 24.285156 25.28125 24.285156 C 24.777344 24.285156 24.289062 24.1875 23.824219 23.992188 C 23.359375 23.792969 22.945312 23.515625 22.589844 23.152344 C 22.230469 22.785156 21.957031 22.367188 21.765625 21.894531 C 21.570312 21.417969 21.472656 20.921875 21.472656 20.410156 C 21.472656 19.894531 21.570312 19.402344 21.765625 18.925781 C 21.957031 18.449219 22.230469 18.03125 22.589844 17.667969 C 22.945312 17.304688 23.359375 17.023438 23.824219 16.828125 C 24.289062 16.628906 24.777344 16.53125 25.28125 16.53125 C 25.785156 16.53125 26.269531 16.628906 26.738281 16.828125 C 27.203125 17.023438 27.617188 17.304688 27.972656 17.667969 C 28.328125 18.03125 28.605469 18.449219 28.796875 18.925781 C 28.992188 19.402344 29.085938 19.894531 29.085938 20.410156 Z M 29.085938 20.410156 " fill-opacity="0.2" fill-rule="nonzero"/><path fill="#509ee3" d="M 29.085938 31.371094 C 29.085938 31.882812 28.992188 32.378906 28.796875 32.851562 C 28.605469 33.328125 28.328125 33.746094 27.972656 34.109375 C 27.617188 34.472656 27.203125 34.753906 26.738281 34.949219 C 26.269531 35.148438 25.785156 35.246094 25.28125 35.246094 C 24.777344 35.246094 24.289062 35.148438 23.824219 34.949219 C 23.359375 34.753906 22.945312 34.472656 22.589844 34.109375 C 22.230469 33.746094 21.957031 33.328125 21.765625 32.851562 C 21.570312 32.378906 21.472656 31.882812 21.472656 31.371094 C 21.472656 30.855469 21.570312 30.359375 21.765625 29.886719 C 21.957031 29.410156 22.230469 28.992188 22.589844 28.628906 C 22.945312 28.265625 23.359375 27.984375 23.824219 27.789062 C 24.289062 27.589844 24.777344 27.492188 25.28125 27.492188 C 25.785156 27.492188 26.269531 27.589844 26.738281 27.789062 C 27.203125 27.984375 27.617188 28.265625 27.972656 28.628906 C 28.328125 28.992188 28.605469 29.410156 28.796875 29.886719 C 28.992188 30.359375 29.085938 30.855469 29.085938 31.371094 Z M 29.085938 31.371094 " fill-opacity="1" fill-rule="nonzero"/><path fill="#509ee3" d="M 39.746094 20.410156 C 39.746094 20.921875 39.648438 21.417969 39.457031 21.894531 C 39.265625 22.367188 38.988281 22.785156 38.632812 23.152344 C 38.273438 23.515625 37.863281 23.792969 37.398438 23.992188 C 36.929688 24.1875 36.445312 24.285156 35.941406 24.285156 C 35.433594 24.285156 34.949219 24.1875 34.484375 23.992188 C 34.015625 23.792969 33.605469 23.515625 33.246094 23.152344 C 32.890625 22.785156 32.617188 22.367188 32.421875 21.894531 C 32.230469 21.417969 32.132812 20.921875 32.132812 20.410156 C 32.132812 19.894531 32.230469 19.402344 32.421875 18.925781 C 32.617188 18.449219 32.890625 18.03125 33.246094 17.667969 C 33.605469 17.304688 34.015625 17.023438 34.484375 16.828125 C 34.949219 16.628906 35.433594 16.53125 35.941406 16.53125 C 36.445312 16.53125 36.929688 16.628906 37.398438 16.828125 C 37.863281 17.023438 38.273438 17.304688 38.632812 17.667969 C 38.988281 18.03125 39.265625 18.449219 39.457031 18.925781 C 39.648438 19.402344 39.746094 19.894531 39.746094 20.410156 Z M 39.746094 20.410156 " fill-opacity="0.2" fill-rule="nonzero"/><g clip-path="url(#9ff4c19256)"><path fill="#509ee3" d="M 39.746094 8.003906 C 39.746094 8.519531 39.648438 9.011719 39.457031 9.488281 C 39.265625 9.960938 38.988281 10.382812 38.632812 10.746094 C 38.273438 11.109375 37.863281 11.386719 37.398438 11.585938 C 36.929688 11.78125 36.445312 11.878906 35.941406 11.878906 C 35.433594 11.878906 34.949219 11.78125 34.484375 11.585938 C 34.015625 11.386719 33.605469 11.109375 33.246094 10.746094 C 32.890625 10.382812 32.617188 9.960938 32.421875 9.488281 C 32.230469 9.011719 32.132812 8.519531 32.132812 8.003906 C 32.132812 7.488281 32.230469 6.996094 32.421875 6.519531 C 32.617188 6.046875 32.890625 5.625 33.246094 5.261719 C 33.605469 4.898438 34.015625 4.617188 34.484375 4.421875 C 34.949219 4.226562 35.433594 4.128906 35.941406 4.128906 C 36.445312 4.128906 36.929688 4.226562 37.398438 4.421875 C 37.863281 4.617188 38.273438 4.898438 38.632812 5.261719 C 38.988281 5.625 39.265625 6.046875 39.457031 6.519531 C 39.648438 6.996094 39.746094 7.488281 39.746094 8.003906 Z M 39.746094 8.003906 " fill-opacity="0.2" fill-rule="nonzero"/></g><path fill="#509ee3" d="M 39.746094 31.371094 C 39.746094 31.882812 39.648438 32.378906 39.457031 32.851562 C 39.265625 33.328125 38.988281 33.746094 38.632812 34.109375 C 38.273438 34.472656 37.863281 34.753906 37.398438 34.949219 C 36.929688 35.148438 36.445312 35.246094 35.941406 35.246094 C 35.433594 35.246094 34.949219 35.148438 34.484375 34.949219 C 34.015625 34.753906 33.605469 34.472656 33.246094 34.109375 C 32.890625 33.746094 32.617188 33.328125 32.421875 32.851562 C 32.230469 32.378906 32.132812 31.882812 32.132812 31.371094 C 32.132812 30.855469 32.230469 30.359375 32.421875 29.886719 C 32.617188 29.410156 32.890625 28.992188 33.246094 28.628906 C 33.605469 28.265625 34.015625 27.984375 34.484375 27.789062 C 34.949219 27.589844 35.433594 27.492188 35.941406 27.492188 C 36.445312 27.492188 36.929688 27.589844 37.398438 27.789062 C 37.863281 27.984375 38.273438 28.265625 38.632812 28.628906 C 38.988281 28.992188 39.265625 29.410156 39.457031 29.886719 C 39.648438 30.359375 39.746094 30.855469 39.746094 31.371094 Z M 39.746094 31.371094 " fill-opacity="0.2" fill-rule="nonzero"/><path fill="#509ee3" d="M 50.40625 20.410156 C 50.40625 20.921875 50.308594 21.417969 50.117188 21.894531 C 49.921875 22.367188 49.648438 22.785156 49.289062 23.152344 C 48.933594 23.515625 48.523438 23.792969 48.054688 23.992188 C 47.589844 24.1875 47.105469 24.285156 46.597656 24.285156 C 46.09375 24.285156 45.609375 24.1875 45.140625 23.992188 C 44.675781 23.792969 44.265625 23.515625 43.90625 23.152344 C 43.550781 22.785156 43.273438 22.367188 43.082031 21.894531 C 42.886719 21.417969 42.792969 20.921875 42.792969 20.410156 C 42.792969 19.894531 42.886719 19.402344 43.082031 18.925781 C 43.273438 18.449219 43.550781 18.03125 43.90625 17.667969 C 44.265625 17.304688 44.675781 17.023438 45.140625 16.828125 C 45.609375 16.628906 46.09375 16.53125 46.597656 16.53125 C 47.105469 16.53125 47.589844 16.628906 48.054688 16.828125 C 48.523438 17.023438 48.933594 17.304688 49.289062 17.667969 C 49.648438 18.03125 49.921875 18.449219 50.117188 18.925781 C 50.308594 19.402344 50.40625 19.894531 50.40625 20.410156 Z M 50.40625 20.410156 " fill-opacity="0.2" fill-rule="nonzero"/><g clip-path="url(#3131f7a09d)"><path fill="#509ee3" d="M 61.066406 20.410156 C 61.066406 20.921875 60.96875 21.417969 60.773438 21.894531 C 60.582031 22.367188 60.308594 22.785156 59.949219 23.152344 C 59.59375 23.515625 59.179688 23.792969 58.714844 23.992188 C 58.25 24.1875 57.761719 24.285156 57.257812 24.285156 C 56.753906 24.285156 56.265625 24.1875 55.800781 23.992188 C 55.335938 23.792969 54.921875 23.515625 54.566406 23.152344 C 54.210938 22.785156 53.933594 22.367188 53.742188 21.894531 C 53.546875 21.417969 53.449219 20.921875 53.449219 20.410156 C 53.449219 19.894531 53.546875 19.402344 53.742188 18.925781 C 53.933594 18.449219 54.210938 18.03125 54.566406 17.667969 C 54.921875 17.304688 55.335938 17.023438 55.800781 16.828125 C 56.265625 16.628906 56.753906 16.53125 57.257812 16.53125 C 57.761719 16.53125 58.25 16.628906 58.714844 16.828125 C 59.179688 17.023438 59.59375 17.304688 59.949219 17.667969 C 60.308594 18.03125 60.582031 18.449219 60.773438 18.925781 C 60.96875 19.402344 61.066406 19.894531 61.066406 20.410156 Z M 61.066406 20.410156 " fill-opacity="1" fill-rule="nonzero"/></g><path fill="#509ee3" d="M 50.40625 31.371094 C 50.40625 31.882812 50.308594 32.378906 50.117188 32.851562 C 49.921875 33.328125 49.648438 33.746094 49.289062 34.109375 C 48.933594 34.472656 48.523438 34.753906 48.054688 34.949219 C 47.589844 35.148438 47.105469 35.246094 46.597656 35.246094 C 46.09375 35.246094 45.609375 35.148438 45.140625 34.949219 C 44.675781 34.753906 44.265625 34.472656 43.90625 34.109375 C 43.550781 33.746094 43.273438 33.328125 43.082031 32.851562 C 42.886719 32.378906 42.792969 31.882812 42.792969 31.371094 C 42.792969 30.855469 42.886719 30.359375 43.082031 29.886719 C 43.273438 29.410156 43.550781 28.992188 43.90625 28.628906 C 44.265625 28.265625 44.675781 27.984375 45.140625 27.789062 C 45.609375 27.589844 46.09375 27.492188 46.597656 27.492188 C 47.105469 27.492188 47.589844 27.589844 48.054688 27.789062 C 48.523438 27.984375 48.933594 28.265625 49.289062 28.628906 C 49.648438 28.992188 49.921875 29.410156 50.117188 29.886719 C 50.308594 30.359375 50.40625 30.855469 50.40625 31.371094 Z M 50.40625 31.371094 " fill-opacity="1" fill-rule="nonzero"/><g clip-path="url(#f02e60c457)"><path fill="#509ee3" d="M 61.066406 31.371094 C 61.066406 31.882812 60.96875 32.378906 60.773438 32.851562 C 60.582031 33.328125 60.308594 33.746094 59.949219 34.109375 C 59.59375 34.472656 59.179688 34.753906 58.714844 34.949219 C 58.25 35.148438 57.761719 35.246094 57.257812 35.246094 C 56.753906 35.246094 56.265625 35.148438 55.800781 34.949219 C 55.335938 34.753906 54.921875 34.472656 54.566406 34.109375 C 54.210938 33.746094 53.933594 33.328125 53.742188 32.851562 C 53.546875 32.378906 53.449219 31.882812 53.449219 31.371094 C 53.449219 30.855469 53.546875 30.359375 53.742188 29.886719 C 53.933594 29.410156 54.210938 28.992188 54.566406 28.628906 C 54.921875 28.265625 55.335938 27.984375 55.800781 27.789062 C 56.265625 27.589844 56.753906 27.492188 57.257812 27.492188 C 57.761719 27.492188 58.25 27.589844 58.714844 27.789062 C 59.179688 27.984375 59.59375 28.265625 59.949219 28.628906 C 60.308594 28.992188 60.582031 29.410156 60.773438 29.886719 C 60.96875 30.359375 61.066406 30.855469 61.066406 31.371094 Z M 61.066406 31.371094 " fill-opacity="1" fill-rule="nonzero"/></g><g clip-path="url(#64eac546c1)"><path fill="#509ee3" d="M 18.429688 42.117188 C 18.429688 42.632812 18.332031 43.128906 18.140625 43.601562 C 17.945312 44.078125 17.671875 44.496094 17.3125 44.859375 C 16.957031 45.222656 16.542969 45.503906 16.078125 45.699219 C 15.613281 45.898438 15.125 45.996094 14.621094 45.996094 C 14.117188 45.996094 13.632812 45.898438 13.164062 45.699219 C 12.699219 45.503906 12.285156 45.222656 11.929688 44.859375 C 11.574219 44.496094 11.296875 44.078125 11.105469 43.601562 C 10.910156 43.128906 10.816406 42.632812 10.816406 42.117188 C 10.816406 41.605469 10.910156 41.109375 11.105469 40.636719 C 11.296875 40.160156 11.574219 39.742188 11.929688 39.378906 C 12.285156 39.015625 12.699219 38.734375 13.164062 38.535156 C 13.632812 38.339844 14.117188 38.242188 14.621094 38.242188 C 15.125 38.242188 15.613281 38.339844 16.078125 38.535156 C 16.542969 38.734375 16.957031 39.015625 17.3125 39.378906 C 17.671875 39.742188 17.945312 40.160156 18.140625 40.636719 C 18.332031 41.109375 18.429688 41.605469 18.429688 42.117188 Z M 18.429688 42.117188 " fill-opacity="1" fill-rule="nonzero"/></g><path fill="#509ee3" d="M 29.085938 42.222656 C 29.085938 42.738281 28.992188 43.234375 28.796875 43.707031 C 28.605469 44.183594 28.328125 44.601562 27.972656 44.964844 C 27.617188 45.328125 27.203125 45.609375 26.738281 45.804688 C 26.269531 46.003906 25.785156 46.101562 25.28125 46.101562 C 24.777344 46.101562 24.289062 46.003906 23.824219 45.804688 C 23.359375 45.609375 22.945312 45.328125 22.589844 44.964844 C 22.230469 44.601562 21.957031 44.183594 21.765625 43.707031 C 21.570312 43.234375 21.472656 42.738281 21.472656 42.222656 C 21.472656 41.710938 21.570312 41.214844 21.765625 40.742188 C 21.957031 40.265625 22.230469 39.847656 22.589844 39.484375 C 22.945312 39.121094 23.359375 38.839844 23.824219 38.640625 C 24.289062 38.445312 24.777344 38.347656 25.28125 38.347656 C 25.785156 38.347656 26.269531 38.445312 26.738281 38.640625 C 27.203125 38.839844 27.617188 39.121094 27.972656 39.484375 C 28.328125 39.847656 28.605469 40.265625 28.796875 40.742188 C 28.992188 41.214844 29.085938 41.710938 29.085938 42.222656 Z M 29.085938 42.222656 " fill-opacity="0.2" fill-rule="nonzero"/><path fill="#509ee3" d="M 39.746094 42.222656 C 39.746094 42.738281 39.648438 43.234375 39.457031 43.707031 C 39.265625 44.183594 38.988281 44.601562 38.632812 44.964844 C 38.273438 45.328125 37.863281 45.609375 37.398438 45.804688 C 36.929688 46.003906 36.445312 46.101562 35.941406 46.101562 C 35.433594 46.101562 34.949219 46.003906 34.484375 45.804688 C 34.015625 45.609375 33.605469 45.328125 33.246094 44.964844 C 32.890625 44.601562 32.617188 44.183594 32.421875 43.707031 C 32.230469 43.234375 32.132812 42.738281 32.132812 42.222656 C 32.132812 41.710938 32.230469 41.214844 32.421875 40.742188 C 32.617188 40.265625 32.890625 39.847656 33.246094 39.484375 C 33.605469 39.121094 34.015625 38.839844 34.484375 38.640625 C 34.949219 38.445312 35.433594 38.347656 35.941406 38.347656 C 36.445312 38.347656 36.929688 38.445312 37.398438 38.640625 C 37.863281 38.839844 38.273438 39.121094 38.632812 39.484375 C 38.988281 39.847656 39.265625 40.265625 39.457031 40.742188 C 39.648438 41.214844 39.746094 41.710938 39.746094 42.222656 Z M 39.746094 42.222656 " fill-opacity="1" fill-rule="nonzero"/><path fill="#509ee3" d="M 50.40625 42.222656 C 50.40625 42.738281 50.308594 43.234375 50.117188 43.707031 C 49.921875 44.183594 49.648438 44.601562 49.289062 44.964844 C 48.933594 45.328125 48.523438 45.609375 48.054688 45.804688 C 47.589844 46.003906 47.105469 46.101562 46.597656 46.101562 C 46.09375 46.101562 45.609375 46.003906 45.140625 45.804688 C 44.675781 45.609375 44.265625 45.328125 43.90625 44.964844 C 43.550781 44.601562 43.273438 44.183594 43.082031 43.707031 C 42.886719 43.234375 42.792969 42.738281 42.792969 42.222656 C 42.792969 41.710938 42.886719 41.214844 43.082031 40.742188 C 43.273438 40.265625 43.550781 39.847656 43.90625 39.484375 C 44.265625 39.121094 44.675781 38.839844 45.140625 38.640625 C 45.609375 38.445312 46.09375 38.347656 46.597656 38.347656 C 47.105469 38.347656 47.589844 38.445312 48.054688 38.640625 C 48.523438 38.839844 48.933594 39.121094 49.289062 39.484375 C 49.648438 39.847656 49.921875 40.265625 50.117188 40.742188 C 50.308594 41.214844 50.40625 41.710938 50.40625 42.222656 Z M 50.40625 42.222656 " fill-opacity="0.2" fill-rule="nonzero"/><g clip-path="url(#2f82c3293e)"><path fill="#509ee3" d="M 61.066406 42.222656 C 61.066406 42.738281 60.96875 43.234375 60.773438 43.707031 C 60.582031 44.183594 60.308594 44.601562 59.949219 44.964844 C 59.59375 45.328125 59.179688 45.609375 58.714844 45.804688 C 58.25 46.003906 57.761719 46.101562 57.257812 46.101562 C 56.753906 46.101562 56.265625 46.003906 55.800781 45.804688 C 55.335938 45.609375 54.921875 45.328125 54.566406 44.964844 C 54.210938 44.601562 53.933594 44.183594 53.742188 43.707031 C 53.546875 43.234375 53.449219 42.738281 53.449219 42.222656 C 53.449219 41.710938 53.546875 41.214844 53.742188 40.742188 C 53.933594 40.265625 54.210938 39.847656 54.566406 39.484375 C 54.921875 39.121094 55.335938 38.839844 55.800781 38.640625 C 56.265625 38.445312 56.753906 38.347656 57.257812 38.347656 C 57.761719 38.347656 58.25 38.445312 58.714844 38.640625 C 59.179688 38.839844 59.59375 39.121094 59.949219 39.484375 C 60.308594 39.847656 60.582031 40.265625 60.773438 40.742188 C 60.96875 41.214844 61.066406 41.710938 61.066406 42.222656 Z M 61.066406 42.222656 " fill-opacity="1" fill-rule="nonzero"/></g><g clip-path="url(#73f42ae336)"><path fill="#509ee3" d="M 18.429688 52.972656 C 18.429688 53.488281 18.332031 53.980469 18.140625 54.457031 C 17.945312 54.933594 17.671875 55.351562 17.3125 55.714844 C 16.957031 56.078125 16.542969 56.359375 16.078125 56.554688 C 15.613281 56.75 15.125 56.851562 14.621094 56.851562 C 14.117188 56.851562 13.632812 56.75 13.164062 56.554688 C 12.699219 56.359375 12.285156 56.078125 11.929688 55.714844 C 11.574219 55.351562 11.296875 54.933594 11.105469 54.457031 C 10.910156 53.980469 10.816406 53.488281 10.816406 52.972656 C 10.816406 52.460938 10.910156 51.964844 11.105469 51.488281 C 11.296875 51.015625 11.574219 50.59375 11.929688 50.230469 C 12.285156 49.867188 12.699219 49.589844 13.164062 49.390625 C 13.632812 49.195312 14.117188 49.097656 14.621094 49.097656 C 15.125 49.097656 15.613281 49.195312 16.078125 49.390625 C 16.542969 49.589844 16.957031 49.867188 17.3125 50.230469 C 17.671875 50.59375 17.945312 51.015625 18.140625 51.488281 C 18.332031 51.964844 18.429688 52.460938 18.429688 52.972656 Z M 18.429688 52.972656 " fill-opacity="1" fill-rule="nonzero"/></g><path fill="#509ee3" d="M 29.085938 53.078125 C 29.085938 53.59375 28.992188 54.085938 28.796875 54.5625 C 28.605469 55.039062 28.328125 55.457031 27.972656 55.820312 C 27.617188 56.183594 27.203125 56.464844 26.738281 56.660156 C 26.269531 56.855469 25.785156 56.957031 25.28125 56.957031 C 24.777344 56.957031 24.289062 56.855469 23.824219 56.660156 C 23.359375 56.464844 22.945312 56.183594 22.589844 55.820312 C 22.230469 55.457031 21.957031 55.039062 21.765625 54.5625 C 21.570312 54.085938 21.472656 53.59375 21.472656 53.078125 C 21.472656 52.566406 21.570312 52.070312 21.765625 51.59375 C 21.957031 51.121094 22.230469 50.699219 22.589844 50.335938 C 22.945312 49.972656 23.359375 49.695312 23.824219 49.496094 C 24.289062 49.300781 24.777344 49.203125 25.28125 49.203125 C 25.785156 49.203125 26.269531 49.300781 26.738281 49.496094 C 27.203125 49.695312 27.617188 49.972656 27.972656 50.335938 C 28.328125 50.699219 28.605469 51.121094 28.796875 51.59375 C 28.992188 52.070312 29.085938 52.566406 29.085938 53.078125 Z M 29.085938 53.078125 " fill-opacity="0.2" fill-rule="nonzero"/><path fill="#509ee3" d="M 39.746094 53.078125 C 39.746094 53.59375 39.648438 54.085938 39.457031 54.5625 C 39.265625 55.039062 38.988281 55.457031 38.632812 55.820312 C 38.273438 56.183594 37.863281 56.464844 37.398438 56.660156 C 36.929688 56.855469 36.445312 56.957031 35.941406 56.957031 C 35.433594 56.957031 34.949219 56.855469 34.484375 56.660156 C 34.015625 56.464844 33.605469 56.183594 33.246094 55.820312 C 32.890625 55.457031 32.617188 55.039062 32.421875 54.5625 C 32.230469 54.085938 32.132812 53.59375 32.132812 53.078125 C 32.132812 52.566406 32.230469 52.070312 32.421875 51.59375 C 32.617188 51.121094 32.890625 50.699219 33.246094 50.335938 C 33.605469 49.972656 34.015625 49.695312 34.484375 49.496094 C 34.949219 49.300781 35.433594 49.203125 35.941406 49.203125 C 36.445312 49.203125 36.929688 49.300781 37.398438 49.496094 C 37.863281 49.695312 38.273438 49.972656 38.632812 50.335938 C 38.988281 50.699219 39.265625 51.121094 39.457031 51.59375 C 39.648438 52.070312 39.746094 52.566406 39.746094 53.078125 Z M 39.746094 53.078125 " fill-opacity="0.2" fill-rule="nonzero"/><g clip-path="url(#389ef1f2e0)"><path fill="#509ee3" d="M 39.746094 63.933594 C 39.746094 64.449219 39.648438 64.941406 39.457031 65.417969 C 39.265625 65.890625 38.988281 66.3125 38.632812 66.675781 C 38.273438 67.039062 37.863281 67.320312 37.398438 67.515625 C 36.929688 67.710938 36.445312 67.808594 35.941406 67.808594 C 35.433594 67.808594 34.949219 67.710938 34.484375 67.515625 C 34.015625 67.320312 33.605469 67.039062 33.246094 66.675781 C 32.890625 66.3125 32.617188 65.890625 32.421875 65.417969 C 32.230469 64.941406 32.132812 64.449219 32.132812 63.933594 C 32.132812 63.417969 32.230469 62.925781 32.421875 62.449219 C 32.617188 61.976562 32.890625 61.554688 33.246094 61.191406 C 33.605469 60.828125 34.015625 60.546875 34.484375 60.351562 C 34.949219 60.15625 35.433594 60.058594 35.941406 60.058594 C 36.445312 60.058594 36.929688 60.15625 37.398438 60.351562 C 37.863281 60.546875 38.273438 60.828125 38.632812 61.191406 C 38.988281 61.554688 39.265625 61.976562 39.457031 62.449219 C 39.648438 62.925781 39.746094 63.417969 39.746094 63.933594 Z M 39.746094 63.933594 " fill-opacity="0.2" fill-rule="nonzero"/></g><path fill="#509ee3" d="M 50.40625 53.078125 C 50.40625 53.59375 50.308594 54.085938 50.117188 54.5625 C 49.921875 55.039062 49.648438 55.457031 49.289062 55.820312 C 48.933594 56.183594 48.523438 56.464844 48.054688 56.660156 C 47.589844 56.855469 47.105469 56.957031 46.597656 56.957031 C 46.09375 56.957031 45.609375 56.855469 45.140625 56.660156 C 44.675781 56.464844 44.265625 56.183594 43.90625 55.820312 C 43.550781 55.457031 43.273438 55.039062 43.082031 54.5625 C 42.886719 54.085938 42.792969 53.59375 42.792969 53.078125 C 42.792969 52.566406 42.886719 52.070312 43.082031 51.59375 C 43.273438 51.121094 43.550781 50.699219 43.90625 50.335938 C 44.265625 49.972656 44.675781 49.695312 45.140625 49.496094 C 45.609375 49.300781 46.09375 49.203125 46.597656 49.203125 C 47.105469 49.203125 47.589844 49.300781 48.054688 49.496094 C 48.523438 49.695312 48.933594 49.972656 49.289062 50.335938 C 49.648438 50.699219 49.921875 51.121094 50.117188 51.59375 C 50.308594 52.070312 50.40625 52.566406 50.40625 53.078125 Z M 50.40625 53.078125 " fill-opacity="0.2" fill-rule="nonzero"/><g clip-path="url(#c59d4f0fde)"><path fill="#509ee3" d="M 61.066406 53.078125 C 61.066406 53.59375 60.96875 54.085938 60.773438 54.5625 C 60.582031 55.039062 60.308594 55.457031 59.949219 55.820312 C 59.59375 56.183594 59.179688 56.464844 58.714844 56.660156 C 58.25 56.855469 57.761719 56.957031 57.257812 56.957031 C 56.753906 56.957031 56.265625 56.855469 55.800781 56.660156 C 55.335938 56.464844 54.921875 56.183594 54.566406 55.820312 C 54.210938 55.457031 53.933594 55.039062 53.742188 54.5625 C 53.546875 54.085938 53.449219 53.59375 53.449219 53.078125 C 53.449219 52.566406 53.546875 52.070312 53.742188 51.59375 C 53.933594 51.121094 54.210938 50.699219 54.566406 50.335938 C 54.921875 49.972656 55.335938 49.695312 55.800781 49.496094 C 56.265625 49.300781 56.753906 49.203125 57.257812 49.203125 C 57.761719 49.203125 58.25 49.300781 58.714844 49.496094 C 59.179688 49.695312 59.59375 49.972656 59.949219 50.335938 C 60.308594 50.699219 60.582031 51.121094 60.773438 51.59375 C 60.96875 52.070312 61.066406 52.566406 61.066406 53.078125 Z M 61.066406 53.078125 " fill-opacity="1" fill-rule="nonzero"/></g></svg>