<svg xmlns="http://www.w3.org/2000/svg" xmlns:xlink="http://www.w3.org/1999/xlink" width="96" zoomAndPan="magnify" viewBox="0 0 72 72" height="96" preserveAspectRatio="xMidYMid meet" version="1.0"><path fill="#00dc82" d="M 39.578125 55.921875 L 61.640625 55.921875 C 62.34375 55.921875 63.015625 55.675781 63.625 55.324219 C 64.234375 54.976562 64.863281 54.539062 65.214844 53.933594 C 65.566406 53.328125 65.8125 52.644531 65.8125 51.945312 C 65.8125 51.25 65.570312 50.5625 65.214844 49.960938 L 50.308594 24.320312 C 49.957031 23.714844 49.527344 23.277344 48.917969 22.929688 C 48.308594 22.582031 47.4375 22.332031 46.734375 22.332031 C 46.027344 22.332031 45.355469 22.582031 44.746094 22.929688 C 44.136719 23.277344 43.707031 23.714844 43.355469 24.320312 L 39.578125 30.878906 L 32.023438 18.160156 C 31.671875 17.554688 31.242188 16.917969 30.632812 16.570312 C 30.023438 16.21875 29.351562 16.171875 28.644531 16.171875 C 27.941406 16.171875 27.269531 16.21875 26.660156 16.570312 C 26.050781 16.917969 25.421875 17.554688 25.070312 18.160156 L 6.585938 49.960938 C 6.234375 50.5625 6.1875 51.25 6.1875 51.945312 C 6.1875 52.644531 6.234375 53.328125 6.585938 53.933594 C 6.9375 54.539062 7.566406 54.976562 8.175781 55.324219 C 8.785156 55.675781 9.457031 55.921875 10.164062 55.921875 L 24.074219 55.921875 C 29.585938 55.921875 33.601562 53.449219 36.398438 48.765625 L 43.15625 37.039062 L 46.734375 30.878906 L 57.664062 49.5625 L 43.15625 49.5625 Z M 23.875 49.5625 L 14.136719 49.5625 L 28.644531 24.519531 L 36 37.039062 L 31.128906 45.53125 C 29.269531 48.570312 27.152344 49.5625 23.875 49.5625 Z M 23.875 49.5625 " fill-opacity="1" fill-rule="nonzero"/></svg>