<svg xmlns="http://www.w3.org/2000/svg" xmlns:xlink="http://www.w3.org/1999/xlink" width="96" zoomAndPan="magnify" viewBox="0 0 72 72" height="96" preserveAspectRatio="xMidYMid meet" version="1.0"><defs><clipPath id="1979919e5f"><path d="M 2.664062 2.664062 L 69.414062 2.664062 L 69.414062 69.414062 L 2.664062 69.414062 Z M 2.664062 2.664062 " clip-rule="nonzero"/></clipPath></defs><g clip-path="url(#1979919e5f)"><path fill="#ff6c37" d="M 69.140625 40.273438 C 71.476562 21.988281 58.5625 5.269531 40.308594 2.933594 C 22.054688 0.601562 5.269531 13.511719 2.933594 31.765625 C 0.601562 50.019531 13.511719 66.769531 31.765625 69.140625 C 50.050781 71.476562 66.769531 58.5625 69.140625 40.273438 Z M 69.140625 40.273438 " fill-opacity="1" fill-rule="nonzero"/></g><path fill="#ffffff" d="M 48.082031 24.089844 L 34.003906 38.171875 L 30.03125 34.203125 C 43.878906 20.355469 45.246094 21.554688 48.082031 24.089844 Z M 48.082031 24.089844 " fill-opacity="1" fill-rule="nonzero"/><path fill="#ff6c37" d="M 34.003906 38.507812 C 33.902344 38.507812 33.835938 38.472656 33.769531 38.40625 L 29.765625 34.4375 C 29.628906 34.300781 29.628906 34.101562 29.765625 33.96875 C 43.847656 19.886719 45.3125 21.222656 48.285156 23.890625 C 48.351562 23.957031 48.382812 24.023438 48.382812 24.125 C 48.382812 24.226562 48.351562 24.292969 48.285156 24.359375 L 34.203125 38.40625 C 34.167969 38.472656 34.070312 38.507812 34.003906 38.507812 Z M 30.5 34.203125 L 34.003906 37.707031 L 47.582031 24.125 C 45.113281 21.921875 43.445312 21.253906 30.5 34.203125 Z M 30.5 34.203125 " fill-opacity="1" fill-rule="nonzero"/><path fill="#ffffff" d="M 38.039062 42.210938 L 34.203125 38.375 L 48.285156 24.292969 C 52.054688 28.09375 46.414062 34.269531 38.039062 42.210938 Z M 38.039062 42.210938 " fill-opacity="1" fill-rule="nonzero"/><path fill="#ff6c37" d="M 38.039062 42.542969 C 37.941406 42.542969 37.871094 42.511719 37.804688 42.445312 L 33.96875 38.605469 C 33.902344 38.539062 33.902344 38.472656 33.902344 38.375 C 33.902344 38.273438 33.933594 38.207031 34.003906 38.140625 L 48.082031 24.058594 C 48.21875 23.925781 48.417969 23.925781 48.550781 24.058594 C 49.417969 24.859375 49.886719 25.992188 49.851562 27.160156 C 49.785156 30.867188 45.582031 35.570312 38.304688 42.445312 C 38.207031 42.511719 38.105469 42.542969 38.039062 42.542969 Z M 34.667969 38.375 C 36.804688 40.542969 37.707031 41.410156 38.039062 41.742188 C 43.644531 36.40625 49.085938 30.933594 49.117188 27.160156 C 49.152344 26.292969 48.816406 25.425781 48.25 24.757812 Z M 34.667969 38.375 " fill-opacity="1" fill-rule="nonzero"/><path fill="#ffffff" d="M 30.097656 34.300781 L 32.933594 37.140625 C 33 37.207031 33 37.273438 32.933594 37.339844 C 32.902344 37.371094 32.902344 37.371094 32.867188 37.371094 L 26.996094 38.640625 C 26.695312 38.671875 26.425781 38.472656 26.359375 38.171875 C 26.328125 38.007812 26.394531 37.839844 26.492188 37.738281 L 29.898438 34.335938 C 29.964844 34.269531 30.0625 34.234375 30.097656 34.300781 Z M 30.097656 34.300781 " fill-opacity="1" fill-rule="nonzero"/><path fill="#ff6c37" d="M 26.894531 38.972656 C 26.394531 38.972656 26.027344 38.574219 26.027344 38.074219 C 26.027344 37.839844 26.125 37.605469 26.292969 37.4375 L 29.699219 34.035156 C 29.898438 33.867188 30.164062 33.867188 30.363281 34.035156 L 33.199219 36.871094 C 33.402344 37.039062 33.402344 37.339844 33.199219 37.539062 C 33.132812 37.605469 33.066406 37.640625 32.96875 37.671875 L 27.09375 38.941406 C 27.027344 38.941406 26.960938 38.972656 26.894531 38.972656 Z M 29.996094 34.667969 L 26.726562 37.941406 C 26.660156 38.007812 26.628906 38.105469 26.695312 38.207031 C 26.726562 38.304688 26.828125 38.339844 26.929688 38.304688 L 32.433594 37.105469 Z M 29.996094 34.667969 " fill-opacity="1" fill-rule="nonzero"/><path fill="#ffffff" d="M 55.523438 16.28125 C 53.390625 14.214844 49.953125 14.28125 47.882812 16.449219 C 45.816406 18.617188 45.882812 22.023438 48.050781 24.089844 C 49.820312 25.792969 52.488281 26.09375 54.589844 24.824219 L 50.785156 21.019531 Z M 55.523438 16.28125 " fill-opacity="1" fill-rule="nonzero"/><path fill="#ff6c37" d="M 51.789062 25.925781 C 48.617188 25.925781 46.046875 23.355469 46.046875 20.1875 C 46.046875 17.015625 48.617188 14.449219 51.789062 14.449219 C 53.257812 14.449219 54.691406 15.015625 55.757812 16.050781 C 55.824219 16.117188 55.859375 16.183594 55.859375 16.28125 C 55.859375 16.382812 55.824219 16.449219 55.757812 16.515625 L 51.253906 21.019531 L 54.789062 24.558594 C 54.925781 24.691406 54.925781 24.890625 54.789062 25.027344 C 54.757812 25.058594 54.757812 25.058594 54.722656 25.09375 C 53.855469 25.625 52.820312 25.925781 51.789062 25.925781 Z M 51.789062 15.148438 C 48.984375 15.148438 46.714844 17.417969 46.75 20.21875 C 46.75 23.023438 49.019531 25.292969 51.820312 25.257812 C 52.589844 25.257812 53.355469 25.09375 54.058594 24.726562 L 50.554688 21.253906 C 50.484375 21.1875 50.453125 21.121094 50.453125 21.019531 C 50.453125 20.921875 50.484375 20.855469 50.554688 20.789062 L 55.023438 16.316406 C 54.125 15.550781 52.988281 15.148438 51.789062 15.148438 Z M 51.789062 15.148438 " fill-opacity="1" fill-rule="nonzero"/><path fill="#ffffff" d="M 55.625 16.382812 L 55.558594 16.316406 L 50.785156 21.019531 L 54.558594 24.792969 C 54.925781 24.558594 55.292969 24.292969 55.589844 23.992188 C 57.726562 21.890625 57.726562 18.484375 55.625 16.382812 Z M 55.625 16.382812 " fill-opacity="1" fill-rule="nonzero"/><path fill="#ff6c37" d="M 54.589844 25.160156 C 54.492188 25.160156 54.421875 25.125 54.355469 25.058594 L 50.554688 21.253906 C 50.484375 21.1875 50.453125 21.121094 50.453125 21.019531 C 50.453125 20.921875 50.484375 20.855469 50.554688 20.789062 L 55.292969 16.050781 C 55.425781 15.914062 55.625 15.914062 55.757812 16.050781 L 55.859375 16.117188 C 58.09375 18.351562 58.09375 21.957031 55.890625 24.226562 C 55.558594 24.558594 55.191406 24.859375 54.789062 25.09375 C 54.691406 25.125 54.625 25.160156 54.589844 25.160156 Z M 51.253906 21.019531 L 54.625 24.390625 C 54.890625 24.226562 55.15625 23.992188 55.359375 23.792969 C 57.261719 21.890625 57.359375 18.785156 55.523438 16.785156 Z M 51.253906 21.019531 " fill-opacity="1" fill-rule="nonzero"/><path fill="#ffffff" d="M 48.652344 24.691406 C 47.851562 23.890625 46.546875 23.890625 45.746094 24.691406 L 33.167969 37.273438 L 35.269531 39.375 L 48.585938 27.695312 C 49.453125 26.960938 49.519531 25.660156 48.785156 24.792969 C 48.71875 24.757812 48.683594 24.726562 48.652344 24.691406 Z M 48.652344 24.691406 " fill-opacity="1" fill-rule="nonzero"/><path fill="#ff6c37" d="M 35.238281 39.707031 C 35.136719 39.707031 35.070312 39.675781 35.003906 39.609375 L 32.902344 37.503906 C 32.765625 37.371094 32.765625 37.171875 32.902344 37.039062 L 45.480469 24.457031 C 46.414062 23.523438 47.917969 23.523438 48.851562 24.457031 C 49.785156 25.394531 49.785156 26.894531 48.851562 27.828125 C 48.816406 27.863281 48.785156 27.894531 48.75 27.929688 L 35.4375 39.609375 C 35.402344 39.675781 35.335938 39.707031 35.238281 39.707031 Z M 33.636719 37.273438 L 35.269531 38.90625 L 48.351562 27.429688 C 49.085938 26.828125 49.152344 25.726562 48.550781 24.992188 C 47.949219 24.257812 46.847656 24.191406 46.113281 24.792969 C 46.082031 24.824219 46.046875 24.859375 45.980469 24.890625 Z M 33.636719 37.273438 " fill-opacity="1" fill-rule="nonzero"/><path fill="#ffffff" d="M 23.523438 51.585938 C 23.390625 51.652344 23.324219 51.789062 23.355469 51.921875 L 23.925781 54.324219 C 24.058594 54.65625 23.859375 55.058594 23.492188 55.15625 C 23.222656 55.257812 22.921875 55.15625 22.757812 54.957031 L 19.085938 51.320312 L 31.066406 39.339844 L 35.203125 39.40625 L 38.007812 42.210938 C 37.339844 42.777344 33.300781 46.683594 23.523438 51.585938 Z M 23.523438 51.585938 " fill-opacity="1" fill-rule="nonzero"/><path fill="#ff6c37" d="M 23.257812 55.492188 C 22.988281 55.492188 22.722656 55.390625 22.554688 55.191406 L 18.917969 51.554688 C 18.851562 51.488281 18.820312 51.421875 18.820312 51.320312 C 18.820312 51.21875 18.851562 51.152344 18.917969 51.085938 L 30.898438 39.109375 C 30.964844 39.039062 31.066406 39.007812 31.132812 39.007812 L 35.269531 39.074219 C 35.371094 39.074219 35.4375 39.109375 35.503906 39.175781 L 38.304688 41.976562 C 38.375 42.042969 38.40625 42.144531 38.40625 42.242188 C 38.40625 42.34375 38.375 42.410156 38.273438 42.476562 L 38.039062 42.679688 C 34.503906 45.78125 29.699219 48.882812 23.722656 51.855469 L 24.292969 54.222656 C 24.390625 54.65625 24.191406 55.125 23.792969 55.359375 C 23.589844 55.457031 23.425781 55.492188 23.257812 55.492188 Z M 19.585938 51.320312 L 23.023438 54.722656 C 23.125 54.890625 23.324219 54.957031 23.492188 54.859375 C 23.65625 54.757812 23.722656 54.558594 23.625 54.390625 L 23.058594 51.988281 C 22.988281 51.6875 23.125 51.421875 23.390625 51.289062 C 29.296875 48.316406 34.070312 45.246094 37.574219 42.210938 L 35.101562 39.742188 L 31.265625 39.675781 Z M 19.585938 51.320312 " fill-opacity="1" fill-rule="nonzero"/><path fill="#ffffff" d="M 16.25 54.191406 L 19.121094 51.320312 L 23.390625 55.589844 L 16.582031 55.125 C 16.28125 55.089844 16.082031 54.824219 16.117188 54.523438 C 16.117188 54.390625 16.148438 54.257812 16.25 54.191406 Z M 16.25 54.191406 " fill-opacity="1" fill-rule="nonzero"/><path fill="#ff6c37" d="M 23.390625 55.890625 L 16.550781 55.425781 C 16.050781 55.390625 15.714844 54.957031 15.75 54.457031 C 15.78125 54.257812 15.847656 54.058594 16.015625 53.921875 L 18.886719 51.054688 C 19.019531 50.921875 19.21875 50.921875 19.351562 51.054688 L 23.625 55.324219 C 23.722656 55.425781 23.757812 55.558594 23.691406 55.691406 C 23.625 55.824219 23.523438 55.890625 23.390625 55.890625 Z M 19.121094 51.789062 L 16.484375 54.421875 C 16.382812 54.492188 16.382812 54.65625 16.484375 54.722656 C 16.515625 54.757812 16.550781 54.789062 16.617188 54.789062 L 22.523438 55.191406 Z M 19.121094 51.789062 " fill-opacity="1" fill-rule="nonzero"/><path fill="#ff6c37" d="M 29.898438 40.875 C 29.699219 40.875 29.5625 40.710938 29.5625 40.542969 C 29.5625 40.441406 29.597656 40.375 29.664062 40.308594 L 32.902344 37.070312 C 33.035156 36.9375 33.234375 36.9375 33.367188 37.070312 L 35.46875 39.175781 C 35.570312 39.273438 35.605469 39.375 35.570312 39.507812 C 35.535156 39.609375 35.4375 39.707031 35.304688 39.742188 L 29.964844 40.875 C 29.929688 40.875 29.898438 40.875 29.898438 40.875 Z M 33.132812 37.773438 L 30.933594 39.976562 L 34.535156 39.207031 Z M 33.132812 37.773438 " fill-opacity="1" fill-rule="nonzero"/><path fill="#ffffff" d="M 35.203125 39.40625 L 31.53125 40.207031 C 31.265625 40.273438 31 40.109375 30.933594 39.839844 C 30.898438 39.675781 30.933594 39.507812 31.066406 39.375 L 33.101562 37.339844 Z M 35.203125 39.40625 " fill-opacity="1" fill-rule="nonzero"/><path fill="#ff6c37" d="M 31.464844 40.542969 C 31 40.542969 30.632812 40.175781 30.632812 39.707031 C 30.632812 39.472656 30.730469 39.273438 30.867188 39.109375 L 32.902344 37.070312 C 33.035156 36.9375 33.234375 36.9375 33.367188 37.070312 L 35.46875 39.175781 C 35.570312 39.273438 35.605469 39.375 35.570312 39.507812 C 35.535156 39.609375 35.4375 39.707031 35.304688 39.742188 L 31.632812 40.542969 C 31.566406 40.542969 31.5 40.542969 31.464844 40.542969 Z M 33.132812 37.773438 L 31.332031 39.574219 C 31.265625 39.640625 31.265625 39.707031 31.300781 39.773438 C 31.332031 39.839844 31.398438 39.875 31.5 39.875 L 34.570312 39.207031 Z M 33.132812 37.773438 " fill-opacity="1" fill-rule="nonzero"/><path fill="#ff6c37" d="M 55.660156 19.585938 C 55.589844 19.386719 55.359375 19.285156 55.15625 19.351562 C 54.957031 19.417969 54.859375 19.652344 54.925781 19.855469 C 54.925781 19.886719 54.957031 19.921875 54.957031 19.953125 C 55.15625 20.355469 55.089844 20.855469 54.824219 21.222656 C 54.691406 21.386719 54.722656 21.621094 54.859375 21.753906 C 55.023438 21.890625 55.257812 21.855469 55.390625 21.6875 C 55.890625 21.054688 55.992188 20.253906 55.660156 19.585938 Z M 55.660156 19.585938 " fill-opacity="1" fill-rule="nonzero"/></svg>